<svg style="position:absolute;width:0;height:0;overflow:hidden"
    xmlns="http://www.w3.org/2000/svg">
    <defs>
        <symbol id="icon-check-mark-svgrepo-com" viewBox="0 0 32 32">
            <path
                d="M30.63 1.222c-0.41-0.269-0.912-0.43-1.451-0.43-0.933 0-1.754 0.479-2.23 1.205l-0.006 0.010-14.942 23.032-7.287-6.738c-0.474-0.439-1.111-0.709-1.81-0.709-1.473 0-2.666 1.194-2.666 2.666 0 0.773 0.329 1.469 0.854 1.956l0.002 0.002 9.568 8.846s0.275 0.236 0.402 0.319c0.41 0.27 0.912 0.43 1.452 0.43 0.933 0 1.755-0.48 2.231-1.206l0.006-0.010 16.665-25.687c0.269-0.41 0.43-0.912 0.43-1.451 0-0.933-0.479-1.754-1.205-2.231l-0.010-0.006z"></path>
        </symbol>
        <symbol id="icon-edit" viewBox="0 0 32 32">
            <path stroke-linejoin="round" stroke-linecap="round" stroke-miterlimit="4"
                stroke-width="2.672" fill="none"
                d="M14.667 5.333h-9.333c-0.707 0-1.386 0.281-1.886 0.781s-0.781 1.178-0.781 1.886v18.667c0 0.707 0.281 1.385 0.781 1.886s1.178 0.781 1.886 0.781h18.667c0.707 0 1.386-0.281 1.886-0.781s0.781-1.178 0.781-1.886v-9.333M24.667 3.333c0.53-0.53 1.25-0.828 2-0.828s1.47 0.298 2 0.828 0.828 1.25 0.828 2c0 0.75-0.298 1.47-0.828 2l-12.667 12.667-5.333 1.333 1.333-5.333 12.667-12.667z"></path>
        </symbol>
        <symbol id="icon-good-settings" viewBox="0 0 32 32">
            <path stroke-linejoin="round" stroke-linecap="round" stroke-miterlimit="4"
                stroke-width="2.672" fill="none"
                d="M26.667 9.333h-12M18.667 22.667h-12M18.667 22.667c0 2.209 1.791 4 4 4s4-1.791 4-4c0-2.209-1.791-4-4-4s-4 1.791-4 4zM13.333 9.333c0 2.209-1.791 4-4 4s-4-1.791-4-4c0-2.209 1.791-4 4-4s4 1.791 4 4z"></path>
        </symbol>
        <symbol id="icon-pie-chart" viewBox="0 0 32 32">
            <path stroke-linejoin="round" stroke-linecap="round" stroke-miterlimit="4"
                stroke-width="2.672" fill="none"
                d="M28.28 21.187c-0.848 2.006-2.175 3.774-3.864 5.148s-3.689 2.315-5.826 2.738c-2.136 0.423-4.344 0.316-6.43-0.311s-3.986-1.756-5.535-3.287c-1.549-1.531-2.699-3.418-3.35-5.497s-0.783-4.285-0.384-6.426c0.399-2.141 1.316-4.152 2.671-5.857s3.108-3.052 5.104-3.923M29.333 16c0-1.751-0.345-3.485-1.015-5.102s-1.652-3.088-2.89-4.326c-1.238-1.238-2.708-2.22-4.326-2.89s-3.352-1.015-5.102-1.015v13.333h13.333z"></path>
        </symbol>
        <symbol id="icon-panel-right-open" viewBox="0 0 32 32">
            <path
                d="M26.667 6.667c0-0.736-0.597-1.333-1.333-1.333h-4v21.333h4c0.736 0 1.333-0.597 1.333-1.333v-18.667zM12.391 11.057c0.521-0.521 1.365-0.521 1.885 0s0.521 1.365 0 1.885l-3.057 3.057 3.057 3.057 0.091 0.102c0.427 0.524 0.397 1.296-0.091 1.784s-1.26 0.518-1.784 0.091l-0.102-0.091-4-4c-0.521-0.521-0.521-1.365 0-1.885l4-4zM5.333 25.333c0 0.736 0.597 1.333 1.333 1.333h12v-21.333h-12c-0.736 0-1.333 0.597-1.333 1.333v18.667zM29.333 25.333c0 2.209-1.791 4-4 4h-18.667c-2.209 0-4-1.791-4-4v-18.667c0-2.209 1.791-4 4-4h18.667c2.209 0 4 1.791 4 4v18.667z"></path>
        </symbol>
        <symbol id="icon-save" viewBox="0 0 32 32">
            <path
                d="M10.667 18.667v8h10.667v-8h-10.667zM2.667 6.667c0-1.061 0.422-2.078 1.172-2.828s1.767-1.172 2.828-1.172h13.618c1.050 0.015 2.052 0.444 2.789 1.191l0.001-0.001 5.066 5.068c0.748 0.738 1.176 1.74 1.191 2.79v13.618c0 1.061-0.422 2.078-1.172 2.828s-1.767 1.172-2.828 1.172h-18.667c-1.061 0-2.078-0.422-2.828-1.172s-1.172-1.767-1.172-2.828v-18.667zM5.333 25.333c0 0.354 0.141 0.693 0.391 0.943s0.589 0.391 0.943 0.391h1.333v-8c0-0.707 0.281-1.385 0.781-1.885s1.178-0.781 1.885-0.781h10.667c0.707 0 1.385 0.281 1.885 0.781s0.781 1.178 0.781 1.885v8h1.333c0.354 0 0.693-0.14 0.943-0.391s0.391-0.589 0.391-0.943v-13.581l-0.008-0.132c-0.034-0.303-0.172-0.587-0.392-0.802l-0.010-0.009v-0.001l-5.076-5.076c-0.215-0.22-0.499-0.358-0.802-0.392l-0.132-0.008h-9.581v4h9.333c0.736 0 1.333 0.597 1.333 1.333s-0.597 1.333-1.333 1.333h-9.333c-0.707 0-1.385-0.281-1.885-0.781s-0.781-1.178-0.781-1.885v-4h-1.333c-0.354 0-0.693 0.141-0.943 0.391s-0.391 0.589-0.391 0.943v18.667z"></path>
        </symbol>
        <symbol id="icon-plus" viewBox="0 0 32 32">
            <path stroke-linejoin="round" stroke-linecap="round" stroke-miterlimit="4"
                stroke-width="2.672" fill="none" d="M6.667 16h18.667M16 6.667v18.667"></path>
        </symbol>
        <symbol id="icon-plus-circle" viewBox="0 0 32 32">
            <path stroke-linejoin="round" stroke-linecap="round" stroke-miterlimit="4"
                stroke-width="2.672" fill="none"
                d="M10.667 16h10.667M16 10.667v10.667M29.333 16c0 7.364-5.969 13.333-13.333 13.333s-13.333-5.969-13.333-13.333 5.97-13.333 13.333-13.333c7.364 0 13.333 5.97 13.333 13.333z"></path>
        </symbol>
        <symbol id="icon-refresh" viewBox="0 0 32 32">
            <path stroke-linejoin="round" stroke-linecap="round" stroke-miterlimit="4"
                stroke-width="2.672" fill="none"
                d="M4 16c0-3.183 1.264-6.235 3.515-8.485s5.303-3.515 8.485-3.515c3.355 0.013 6.575 1.322 8.987 3.653l3.013 3.013M28 10.667v-6.667M28 10.667h-6.667M28 16c0 3.183-1.264 6.235-3.515 8.485s-5.303 3.515-8.485 3.515c-3.355-0.013-6.575-1.322-8.987-3.653l-3.013-3.013M4 21.333h6.667M4 21.333v6.667"></path>
        </symbol>
        <symbol id="icon-filter" viewBox="0 0 32 32">
            <path stroke-linejoin="round" stroke-linecap="round" stroke-miterlimit="4"
                stroke-width="2.672" fill="none"
                d="M29.333 4h-26.667l10.667 12.613v8.72l5.333 2.667v-11.387l10.667-12.613z"></path>
        </symbol>
        <symbol id="icon-ellipsis" viewBox="0 0 32 32">
            <path
                d="M4 16c0-1.473 1.194-2.667 2.667-2.667s2.667 1.194 2.667 2.667c0 1.473-1.194 2.667-2.667 2.667s-2.667-1.194-2.667-2.667zM13.333 16c0-1.473 1.194-2.667 2.667-2.667s2.667 1.194 2.667 2.667c0 1.473-1.194 2.667-2.667 2.667s-2.667-1.194-2.667-2.667zM22.667 16c0-1.473 1.194-2.667 2.667-2.667s2.667 1.194 2.667 2.667c0 1.473-1.194 2.667-2.667 2.667s-2.667-1.194-2.667-2.667z"></path>
        </symbol>
        <symbol id="icon-arrow-left" viewBox="0 0 32 32">
            <path
                d="M15.057 5.724c0.521-0.521 1.365-0.521 1.885 0s0.521 1.365 0 1.885l-7.057 7.057h15.448c0.736 0 1.333 0.597 1.333 1.333s-0.597 1.333-1.333 1.333h-15.448l7.057 7.057 0.091 0.102c0.427 0.524 0.397 1.296-0.091 1.784s-1.26 0.518-1.784 0.091l-0.102-0.091-9.333-9.333c-0.521-0.521-0.521-1.365 0-1.885l9.333-9.333z"></path>
        </symbol>
        <symbol id="icon-close" viewBox="0 0 32 32">
            <path
                d="M23.057 7.057c0.521-0.521 1.365-0.521 1.885 0s0.521 1.365 0 1.885l-7.057 7.057 7.057 7.057 0.091 0.102c0.427 0.524 0.397 1.296-0.091 1.784s-1.26 0.518-1.784 0.091l-0.102-0.091-7.057-7.057-7.057 7.057c-0.521 0.521-1.365 0.521-1.885 0s-0.521-1.365 0-1.886l7.057-7.057-7.057-7.057c-0.521-0.521-0.521-1.365 0-1.885s1.365-0.521 1.885 0l7.057 7.057 7.057-7.057z"></path>
        </symbol>
        <symbol id="icon-tabs" viewBox="0 0 32 32">
            <path
                d="M28 12h-24v12c0 0.736 0.597 1.333 1.333 1.333h21.333c0.736 0 1.333-0.597 1.333-1.333v-12zM9.333 9.333h2.667v-2.667h-2.667v2.667zM28 8c0-0.736-0.597-1.333-1.333-1.333h-12v2.667h13.333v-1.333zM4 9.333h2.667v-2.667h-1.333c-0.736 0-1.333 0.597-1.333 1.333v1.333zM30.667 24c0 2.209-1.791 4-4 4h-21.333c-2.209 0-4-1.791-4-4v-16c0-2.209 1.791-4 4-4h21.333c2.209 0 4 1.791 4 4v16z"></path>
        </symbol>
        <symbol id="icon-connections" viewBox="0 0 32 32">
            <path
                d="M1.333 12v-5.333c0-1.061 0.422-2.078 1.172-2.828s1.767-1.172 2.828-1.172l5.201 0.001c0.664-0.004 1.32 0.156 1.906 0.469s1.084 0.765 1.451 1.318h0.001l1.079 1.6 0.009 0.012c0.121 0.184 0.286 0.337 0.48 0.441s0.412 0.159 0.633 0.159h10.573c1.061 0 2.078 0.422 2.828 1.172s1.172 1.767 1.172 2.828v13.333c0 1.061-0.422 2.078-1.172 2.828s-1.767 1.172-2.828 1.172h-21.333c-1.061 0-2.078-0.422-2.828-1.172s-1.172-1.767-1.172-2.828v-4c0-1.061 0.422-2.078 1.172-2.828s1.767-1.172 2.828-1.172h6.115l-1.724-1.724-0.091-0.102c-0.427-0.524-0.397-1.296 0.091-1.784s1.26-0.518 1.784-0.091l0.102 0.091 4 4c0.25 0.25 0.391 0.589 0.391 0.943s-0.141 0.693-0.391 0.943l-4 4c-0.521 0.521-1.365 0.521-1.885 0s-0.521-1.365 0-1.885l1.724-1.724h-6.115c-0.354 0-0.693 0.141-0.943 0.391s-0.391 0.589-0.391 0.943v4c0 0.354 0.141 0.693 0.391 0.943s0.589 0.391 0.943 0.391h21.333c0.354 0 0.693-0.141 0.943-0.391s0.391-0.589 0.391-0.943v-13.333c0-0.354-0.141-0.693-0.391-0.943s-0.589-0.391-0.943-0.391h-10.573c-0.662-0-1.314-0.165-1.897-0.479s-1.080-0.767-1.444-1.32v-0.001l-1.072-1.586-0.008-0.013c-0.123-0.186-0.29-0.339-0.487-0.444s-0.417-0.158-0.639-0.156h-5.214c-0.354 0-0.693 0.141-0.943 0.391s-0.391 0.589-0.391 0.943v5.333c0 0.736-0.597 1.333-1.333 1.333s-1.333-0.597-1.333-1.333z"></path>
        </symbol>
        <symbol id="icon-menu" viewBox="0 0 32 32">
            <path
                d="M26.667 6.667c0-0.736-0.597-1.333-1.333-1.333h-12v21.333h12c0.736 0 1.333-0.597 1.333-1.333v-18.667zM5.333 25.333c0 0.736 0.597 1.333 1.333 1.333h4v-21.333h-4c-0.736 0-1.333 0.597-1.333 1.333v18.667zM29.333 25.333c0 2.209-1.791 4-4 4h-18.667c-2.209 0-4-1.791-4-4v-18.667c0-2.209 1.791-4 4-4h18.667c2.209 0 4 1.791 4 4v18.667z"></path>
        </symbol>
        <symbol id="icon-chevrons-left" viewBox="0 0 32 32">
            <path
                d="M13.724 8.391c0.521-0.521 1.365-0.521 1.885 0s0.521 1.365 0 1.885l-5.724 5.724 5.724 5.724 0.091 0.102c0.427 0.524 0.397 1.296-0.091 1.784s-1.26 0.518-1.784 0.091l-0.102-0.091-6.667-6.667c-0.521-0.521-0.521-1.365 0-1.885l6.667-6.667zM23.057 8.391c0.521-0.521 1.365-0.521 1.885 0s0.521 1.365 0 1.885l-5.724 5.724 5.724 5.724 0.091 0.102c0.427 0.524 0.397 1.296-0.091 1.784s-1.26 0.518-1.784 0.091l-0.102-0.091-6.667-6.667c-0.521-0.521-0.521-1.365 0-1.885l6.667-6.667z"></path>
        </symbol>
        <symbol id="icon-chevron" viewBox="0 0 32 32">
            <path
                d="M11.057 7.057c0.521-0.521 1.365-0.521 1.885 0l8 8c0.521 0.521 0.521 1.365 0 1.885l-8 8c-0.521 0.521-1.365 0.521-1.885 0s-0.521-1.365 0-1.885l7.057-7.057-7.057-7.057c-0.521-0.521-0.521-1.365 0-1.885z"></path>
        </symbol>
        <symbol id="icon-chevrons" viewBox="0 0 32 32">
            <path
                d="M21.738 18.837c0.483-0.483 1.266-0.483 1.749 0s0.483 1.266 0 1.749l-6.186 6.186c-0.483 0.483-1.266 0.483-1.749 0l-6.186-6.186c-0.483-0.483-0.483-1.266 0-1.749 0.453-0.453 1.169-0.481 1.655-0.084l0.094 0.084 5.311 5.311 5.311-5.311zM15.647 5.144c0.486-0.396 1.202-0.368 1.655 0.085l6.186 6.186 0.084 0.094c0.396 0.486 0.368 1.202-0.084 1.655s-1.169 0.481-1.655 0.085l-0.094-0.085-5.311-5.311-5.311 5.311c-0.483 0.483-1.266 0.483-1.749 0s-0.483-1.266 0-1.749l6.186-6.186 0.094-0.085z"></path>
        </symbol>
        <symbol id="icon-search" viewBox="0 0 32 32">
            <path
                d="M24 14.667c0-5.155-4.179-9.333-9.333-9.333s-9.333 4.179-9.333 9.333c0 5.155 4.179 9.333 9.333 9.333s9.333-4.179 9.333-9.333zM26.667 14.667c0 2.833-0.984 5.435-2.626 7.488l4.902 4.902 0.091 0.102c0.427 0.524 0.397 1.296-0.091 1.784s-1.26 0.518-1.784 0.091l-0.102-0.091-4.902-4.902c-2.053 1.642-4.655 2.626-7.488 2.626-6.627 0-12-5.373-12-12s5.373-12 12-12c6.627 0 12 5.373 12 12z"></path>
        </symbol>
        <symbol id="icon-logistic" viewBox="0 0 32 32">
            <path
                d="M18.667 24c0-1.473-1.194-2.667-2.667-2.667s-2.667 1.194-2.667 2.667c0 1.473 1.194 2.667 2.667 2.667s2.667-1.194 2.667-2.667zM10.667 8c0-1.473-1.194-2.667-2.667-2.667s-2.667 1.194-2.667 2.667c0 1.473 1.194 2.667 2.667 2.667s2.667-1.194 2.667-2.667zM26.667 8c0-1.473-1.194-2.667-2.667-2.667s-2.667 1.194-2.667 2.667c0 1.473 1.194 2.667 2.667 2.667s2.667-1.194 2.667-2.667zM29.333 8c0 2.485-1.7 4.573-4 5.165v1.501c0 0.703-0.241 1.392-0.758 1.909s-1.206 0.758-1.909 0.758h-5.333v1.501c2.3 0.592 4 2.68 4 5.165 0 2.945-2.388 5.333-5.333 5.333s-5.333-2.388-5.333-5.333c0-2.485 1.7-4.573 4-5.165v-1.501h-5.333c-0.703 0-1.392-0.241-1.909-0.758s-0.758-1.206-0.758-1.909v-1.501c-2.3-0.592-4-2.68-4-5.165 0-2.946 2.388-5.333 5.333-5.333s5.333 2.388 5.333 5.333c0 2.485-1.7 4.573-4 5.165v1.501h13.333v-1.501c-2.3-0.592-4-2.68-4-5.165 0-2.946 2.388-5.333 5.333-5.333s5.333 2.388 5.333 5.333z"></path>
        </symbol>
        <symbol id="icon-bus" viewBox="0 0 32 32">
            <path
                d="M28 18.667c0-0.333-0.082-0.696-0.217-1.241l-0.026-0.092h-23.756v5.333h1.565c0.55-1.553 2.027-2.667 3.768-2.667s3.219 1.114 3.768 2.667h4.464c0.549-1.553 2.027-2.667 3.768-2.667s3.219 1.114 3.768 2.667h1.898c0.032-0.112 0.067-0.23 0.103-0.353 0.216-0.749 0.48-1.675 0.677-2.398 0.137-0.549 0.22-0.914 0.22-1.249zM9.333 22.667c-0.736 0-1.333 0.597-1.333 1.333s0.597 1.333 1.333 1.333 1.333-0.597 1.333-1.333c0-0.736-0.597-1.333-1.333-1.333zM21.333 22.667c-0.736 0-1.333 0.597-1.333 1.333s0.597 1.333 1.333 1.333c0.736 0 1.333-0.597 1.333-1.333s-0.597-1.333-1.333-1.333zM21.333 14.667h5.677l-1.087-3.884-0.052-0.147c-0.292-0.729-1.075-1.302-1.871-1.302h-2.667v5.333zM12 14.667h6.667v-5.333h-6.667v5.333zM30.667 18.667c0 0.726-0.18 1.421-0.306 1.923-0.002 0.009-0.005 0.018-0.008 0.027-0.203 0.743-0.472 1.685-0.689 2.436-0.109 0.376-0.204 0.706-0.273 0.943-0.035 0.118-0.063 0.213-0.082 0.279-0.010 0.033-0.017 0.058-0.022 0.076-0.002 0.008-0.004 0.015-0.005 0.020-0.001 0.002-0.001 0.004-0.001 0.005l-0.001 0.001c-0.167 0.567-0.687 0.957-1.279 0.957h-2.898c-0.55 1.553-2.027 2.667-3.768 2.667s-3.219-1.114-3.768-2.667h-4.464c-0.55 1.553-2.027 2.667-3.768 2.667s-3.219-1.114-3.768-2.667h-2.898c-0.736 0-1.333-0.597-1.333-1.333v-13.333c0-1.061 0.422-2.078 1.172-2.828s1.767-1.172 2.828-1.172h18.667c1.954 0 3.686 1.302 4.357 3.005l0.12 0.345 0.008 0.023 1.492 5.333c0.087 0.163 0.139 0.347 0.151 0.542l0.223 0.792c0.003 0.012 0.007 0.024 0.010 0.036 0.125 0.502 0.306 1.197 0.306 1.923zM4 14.667h5.333v-5.333h-4c-0.354 0-0.693 0.141-0.943 0.391s-0.391 0.589-0.391 0.943v4z"></path>
        </symbol>
        <symbol id="icon-database-zap" viewBox="0 0 32 32">
            <path
                d="M26.857 15.314c0.379-0.631 1.198-0.836 1.829-0.457s0.836 1.198 0.457 1.829l-2.788 4.647h2.978c0.48 0 0.924 0.258 1.16 0.676s0.23 0.932-0.017 1.344l-4 6.667c-0.379 0.631-1.198 0.836-1.829 0.457s-0.836-1.198-0.457-1.829l2.788-4.647h-2.978c-0.48 0-0.923-0.258-1.16-0.676s-0.23-0.932 0.017-1.344l4-6.667zM26.663 6.646c-0.004-0.015-0.016-0.044-0.043-0.087-0.057-0.092-0.172-0.231-0.388-0.401-0.44-0.347-1.16-0.719-2.168-1.055-2.002-0.667-4.854-1.103-8.064-1.103s-6.061 0.435-8.064 1.103c-1.008 0.336-1.728 0.708-2.168 1.055-0.216 0.17-0.331 0.309-0.388 0.401-0.027 0.043-0.038 0.072-0.043 0.087-0.004 0.014-0.004 0.020-0.004 0.021s-0 0.007 0.004 0.021c0.005 0.015 0.016 0.044 0.043 0.087 0.057 0.092 0.172 0.231 0.388 0.401 0.44 0.347 1.16 0.719 2.168 1.055 2.002 0.667 4.854 1.103 8.064 1.103s6.061-0.435 8.064-1.103c1.008-0.336 1.728-0.708 2.168-1.055 0.216-0.17 0.331-0.309 0.388-0.401 0.027-0.043 0.038-0.072 0.043-0.087 0.004-0.014 0.004-0.020 0.004-0.021s0-0.007-0.004-0.021zM29.333 10.667c0 0.736-0.597 1.333-1.333 1.333s-1.333-0.597-1.333-1.333v-0.634c-0.535 0.274-1.128 0.517-1.759 0.728-2.341 0.78-5.49 1.24-8.908 1.24s-6.567-0.459-8.908-1.24c-0.631-0.21-1.224-0.454-1.759-0.728v5.966c0 0.003 0.003 0.010 0.006 0.021 0.008 0.022 0.027 0.065 0.072 0.128 0.094 0.131 0.278 0.319 0.607 0.536 0.665 0.44 1.723 0.877 3.146 1.229 1.408 0.349 3.067 0.588 4.842 0.691 1.773 0.104 3.595 0.068 5.314-0.104 0.733-0.073 1.386 0.461 1.46 1.194s-0.461 1.386-1.194 1.46c-1.863 0.187-3.825 0.225-5.736 0.113-1.909-0.112-3.733-0.371-5.327-0.766-1.203-0.298-2.29-0.679-3.19-1.141v5.991c0 0.003 0.003 0.010 0.006 0.021 0.008 0.022 0.027 0.066 0.073 0.13 0.098 0.136 0.292 0.331 0.639 0.556 0.701 0.455 1.817 0.901 3.307 1.254 1.475 0.349 3.206 0.58 5.043 0.665 1.835 0.085 3.703 0.023 5.441-0.182 0.731-0.086 1.394 0.437 1.48 1.168s-0.437 1.394-1.168 1.48c-1.889 0.223-3.904 0.29-5.879 0.198-1.973-0.092-3.869-0.341-5.531-0.734-1.646-0.39-3.087-0.926-4.145-1.612-1.012-0.656-1.95-1.645-1.935-2.978v-18.651c0-1.136 0.691-2.006 1.451-2.604 0.774-0.61 1.812-1.102 2.975-1.49 2.341-0.78 5.49-1.24 8.908-1.24s6.567 0.459 8.908 1.24c1.163 0.388 2.201 0.88 2.975 1.49 0.759 0.598 1.45 1.468 1.45 2.604v4z"></path>
        </symbol>
        <symbol id="icon-captions" viewBox="0 0 32 32">
            <path
                d="M26.667 9.333c0-0.736-0.597-1.333-1.333-1.333h-18.667c-0.736 0-1.333 0.597-1.333 1.333v13.333c0 0.736 0.597 1.333 1.333 1.333h18.667c0.736 0 1.333-0.597 1.333-1.333v-13.333zM14.667 18.667c0.736 0 1.333 0.597 1.333 1.333s-0.597 1.333-1.333 1.333h-5.333c-0.736 0-1.333-0.597-1.333-1.333s0.597-1.333 1.333-1.333h5.333zM22.667 18.667c0.736 0 1.333 0.597 1.333 1.333s-0.597 1.333-1.333 1.333h-2.667c-0.736 0-1.333-0.597-1.333-1.333s0.597-1.333 1.333-1.333h2.667zM12 13.333c0.736 0 1.333 0.597 1.333 1.333s-0.597 1.333-1.333 1.333h-2.667c-0.736 0-1.333-0.597-1.333-1.333s0.597-1.333 1.333-1.333h2.667zM22.667 13.333c0.736 0 1.333 0.597 1.333 1.333s-0.597 1.333-1.333 1.333h-5.333c-0.736 0-1.333-0.597-1.333-1.333s0.597-1.333 1.333-1.333h5.333zM29.333 22.667c0 2.209-1.791 4-4 4h-18.667c-2.209 0-4-1.791-4-4v-13.333c0-2.209 1.791-4 4-4h18.667c2.209 0 4 1.791 4 4v13.333z"></path>
        </symbol>
        <symbol id="icon-clipboard-list" viewBox="0 0 32 32">
            <path
                d="M10.68 20c0.736 0 1.333 0.597 1.333 1.333s-0.597 1.333-1.333 1.333h-0.013c-0.736 0-1.333-0.597-1.333-1.333s0.597-1.333 1.333-1.333h0.013zM21.333 20c0.736 0 1.333 0.597 1.333 1.333s-0.597 1.333-1.333 1.333h-5.333c-0.736 0-1.333-0.597-1.333-1.333s0.597-1.333 1.333-1.333h5.333zM10.68 13.333c0.736 0 1.333 0.597 1.333 1.333s-0.597 1.333-1.333 1.333h-0.013c-0.736 0-1.333-0.597-1.333-1.333s0.597-1.333 1.333-1.333h0.013zM21.333 13.333c0.736 0 1.333 0.597 1.333 1.333s-0.597 1.333-1.333 1.333h-5.333c-0.736 0-1.333-0.597-1.333-1.333s0.597-1.333 1.333-1.333h5.333zM20 4h-8v2.667h8v-2.667zM22.667 6.667c0 1.473-1.194 2.667-2.667 2.667h-8c-1.473 0-2.667-1.194-2.667-2.667h-1.333c-0.354 0-0.693 0.141-0.943 0.391s-0.391 0.589-0.391 0.943v18.667l0.006 0.132c0.030 0.305 0.165 0.592 0.384 0.811 0.25 0.25 0.589 0.391 0.943 0.391h16c0.354 0 0.693-0.141 0.943-0.391s0.391-0.589 0.391-0.943v-18.667c0-0.354-0.141-0.693-0.391-0.943-0.219-0.219-0.506-0.354-0.811-0.384l-0.132-0.006h-1.333zM24 4c1.061 0 2.078 0.422 2.828 1.172s1.172 1.767 1.172 2.828v18.667c0 1.061-0.422 2.078-1.172 2.828s-1.767 1.172-2.828 1.172h-16c-1.061 0-2.078-0.422-2.828-1.172s-1.172-1.767-1.172-2.828v-18.667c0-1.061 0.422-2.078 1.172-2.828s1.767-1.172 2.828-1.172h1.333c0-1.473 1.194-2.667 2.667-2.667h8c1.473 0 2.667 1.194 2.667 2.667h1.333z"></path>
        </symbol>
        <symbol id="icon-archive-restore" viewBox="0 0 32 32">
            <path
                d="M14.667 28v-8.781l-1.724 1.724c-0.521 0.521-1.365 0.521-1.885 0s-0.521-1.365 0-1.886l4-4 0.102-0.091c0.524-0.427 1.296-0.397 1.784 0.091l4 4 0.091 0.102c0.427 0.524 0.397 1.296-0.091 1.784s-1.26 0.518-1.784 0.091l-0.102-0.091-1.724-1.724v8.781c0 0.736-0.597 1.333-1.333 1.333s-1.333-0.597-1.333-1.333zM4 5.333v4h24v-4h-24zM30.667 9.333c0 1.473-1.194 2.667-2.667 2.667v13.333c0 1.061-0.422 2.078-1.172 2.828s-1.767 1.172-2.828 1.172h-2.667c-0.736 0-1.333-0.597-1.333-1.333s0.597-1.333 1.333-1.333h2.667c0.354 0 0.693-0.141 0.943-0.391s0.391-0.589 0.391-0.943v-13.333h-18.667v13.333l0.006 0.132c0.030 0.305 0.165 0.592 0.384 0.811 0.25 0.25 0.589 0.391 0.943 0.391h2.667c0.736 0 1.333 0.597 1.333 1.333s-0.597 1.333-1.333 1.333h-2.667c-1.061 0-2.078-0.422-2.828-1.172s-1.172-1.767-1.172-2.828v-13.333c-1.473 0-2.667-1.194-2.667-2.667v-4c0-1.473 1.194-2.667 2.667-2.667h24c1.473 0 2.667 1.194 2.667 2.667v4z"></path>
        </symbol>
        <symbol id="icon-brick-wall" viewBox="0 0 32 32">
            <path
                d="M26.667 21.333h-4v5.333h2.667c0.736 0 1.333-0.597 1.333-1.333v-4zM12 26.667h8v-5.333h-8v5.333zM17.333 18.667h9.333v-5.333h-9.333v5.333zM5.333 18.667h9.333v-5.333h-9.333v5.333zM12 10.667h8v-5.333h-8v5.333zM5.333 25.333c0 0.736 0.597 1.333 1.333 1.333h2.667v-5.333h-4v4zM26.667 6.667c0-0.736-0.597-1.333-1.333-1.333h-2.667v5.333h4v-4zM5.333 10.667h4v-5.333h-2.667c-0.736 0-1.333 0.597-1.333 1.333v4zM29.333 25.333c0 2.209-1.791 4-4 4h-18.667c-2.209 0-4-1.791-4-4v-18.667c0-2.209 1.791-4 4-4h18.667c2.209 0 4 1.791 4 4v18.667z"></path>
        </symbol>
        <symbol id="icon-cat-goods" viewBox="0 0 32 32">
            <path
                d="M26.667 16c0-0.736-0.597-1.333-1.333-1.333h-18.667c-0.736 0-1.333 0.597-1.333 1.333v10.667c0 0.736 0.597 1.333 1.333 1.333h18.667c0.736 0 1.333-0.597 1.333-1.333v-10.667zM25.333 6.667c0.736 0 1.333 0.597 1.333 1.333s-0.597 1.333-1.333 1.333h-18.667c-0.736 0-1.333-0.597-1.333-1.333s0.597-1.333 1.333-1.333h18.667zM22.667 1.333c0.736 0 1.333 0.597 1.333 1.333s-0.597 1.333-1.333 1.333h-13.333c-0.736 0-1.333-0.597-1.333-1.333s0.597-1.333 1.333-1.333h13.333zM29.333 26.667c0 2.209-1.791 4-4 4h-18.667c-2.209 0-4-1.791-4-4v-10.667c0-2.209 1.791-4 4-4h18.667c2.209 0 4 1.791 4 4v10.667z"></path>
        </symbol>
        <symbol id="icon-book-open-text" viewBox="0 0 32 32">
            <path
                d="M21.333 5.333c-1.061 0-2.078 0.422-2.828 1.172s-1.172 1.767-1.172 2.828v14.049c0.804-0.464 1.722-0.716 2.667-0.716h8v-17.333h-6.667zM10.667 14.667c0.736 0 1.333 0.597 1.333 1.333s-0.597 1.333-1.333 1.333h-2.667c-0.736 0-1.333-0.597-1.333-1.333s0.597-1.333 1.333-1.333h2.667zM24 14.667c0.736 0 1.333 0.597 1.333 1.333s-0.597 1.333-1.333 1.333h-2.667c-0.736 0-1.333-0.597-1.333-1.333s0.597-1.333 1.333-1.333h2.667zM10.667 9.333c0.736 0 1.333 0.597 1.333 1.333s-0.597 1.333-1.333 1.333h-2.667c-0.736 0-1.333-0.597-1.333-1.333s0.597-1.333 1.333-1.333h2.667zM24 9.333c0.736 0 1.333 0.597 1.333 1.333s-0.597 1.333-1.333 1.333h-2.667c-0.736 0-1.333-0.597-1.333-1.333s0.597-1.333 1.333-1.333h2.667zM4 22.667h8c0.945 0 1.863 0.252 2.667 0.716v-14.049c0-1.061-0.422-2.078-1.172-2.828s-1.767-1.172-2.828-1.172h-6.667v17.333zM30.667 22.667c0 0.707-0.281 1.385-0.781 1.885s-1.178 0.781-1.885 0.781h-8c-0.707 0-1.385 0.281-1.885 0.781s-0.781 1.178-0.781 1.885c0 0.736-0.597 1.333-1.333 1.333s-1.333-0.597-1.333-1.333c0-0.707-0.281-1.385-0.781-1.885-0.438-0.438-1.012-0.708-1.622-0.768l-0.263-0.013h-8c-0.707 0-1.385-0.281-1.885-0.781s-0.781-1.178-0.781-1.885v-17.333c0-0.707 0.281-1.385 0.781-1.885s1.178-0.781 1.885-0.781h6.667c1.768 0 3.463 0.703 4.714 1.953 0.225 0.225 0.431 0.464 0.62 0.715 0.188-0.251 0.395-0.49 0.62-0.715 1.25-1.25 2.945-1.953 4.714-1.953h6.667c0.707 0 1.385 0.281 1.885 0.781s0.781 1.178 0.781 1.885v17.333z"></path>
        </symbol>
        <symbol id="icon-book-image" viewBox="0 0 32 32">
            <path
                d="M8.667 4c-0.53 0-1.039 0.211-1.414 0.586s-0.586 0.884-0.586 1.414v15.784c0.619-0.294 1.301-0.451 2-0.451h3.715l6.819-6.819c0.748-0.733 1.753-1.143 2.799-1.143s2.052 0.411 2.799 1.143l0.011 0.009 0.523 0.523v-11.047h-16.667zM22 16.038c-0.349 0-0.684 0.137-0.933 0.381l-4.914 4.914h9.181v-2.514l-2.41-2.41c-0.248-0.238-0.579-0.371-0.923-0.371zM14.667 10.667c0-0.736-0.597-1.333-1.333-1.333s-1.333 0.597-1.333 1.333c0 0.736 0.597 1.333 1.333 1.333s1.333-0.597 1.333-1.333zM6.667 26c0 0.53 0.211 1.039 0.586 1.414s0.884 0.586 1.414 0.586h16.667v-4h-16.667c-0.53 0-1.039 0.211-1.414 0.586s-0.586 0.884-0.586 1.414zM17.333 10.667c0 2.209-1.791 4-4 4s-4-1.791-4-4c0-2.209 1.791-4 4-4s4 1.791 4 4zM28 28c0 0.707-0.281 1.385-0.781 1.885s-1.178 0.781-1.885 0.781h-16.667c-1.238 0-2.424-0.492-3.3-1.367s-1.367-2.062-1.367-3.3v-20c0-1.238 0.492-2.424 1.367-3.3s2.062-1.367 3.3-1.367h16.667c0.707 0 1.385 0.281 1.885 0.781s0.781 1.178 0.781 1.885v24z"></path>
        </symbol>
        <symbol id="icon-categories" viewBox="0 0 32 32">
            <path
                d="M14.667 20v6.667h6.667v-6.667h-6.667zM20 5.333v6.667h6.667v-6.667h-6.667zM12 26.667v-6.667h-6.667v6.667h6.667zM5.333 10.667v6.667h6.667v-6.667h-6.667zM14.667 17.333h6.667c0.707 0 1.385 0.281 1.885 0.781s0.781 1.178 0.781 1.885v6.667c0 0.707-0.281 1.385-0.781 1.885s-1.178 0.781-1.885 0.781h-16c-0.707 0-1.385-0.281-1.885-0.781s-0.781-1.178-0.781-1.885v-16c0-0.707 0.281-1.385 0.781-1.885s1.178-0.781 1.885-0.781h6.667c0.707 0 1.385 0.281 1.885 0.781s0.781 1.178 0.781 1.885v6.667zM29.333 12c0 1.473-1.194 2.667-2.667 2.667h-6.667c-1.473 0-2.667-1.194-2.667-2.667v-6.667c0-1.473 1.194-2.667 2.667-2.667h6.667c1.473 0 2.667 1.194 2.667 2.667v6.667z"></path>
        </symbol>
        <symbol id="icon-companies" viewBox="0 0 32 32">
            <path
                d="M28 14.667c0-0.354-0.141-0.693-0.391-0.943s-0.589-0.391-0.943-0.391h-1.333v14.667h1.333c0.354 0 0.693-0.141 0.943-0.391s0.391-0.589 0.391-0.943v-12zM18.667 22.667c0.736 0 1.333 0.597 1.333 1.333s-0.597 1.333-1.333 1.333h-5.333c-0.736 0-1.333-0.597-1.333-1.333s0.597-1.333 1.333-1.333h5.333zM18.667 17.333c0.736 0 1.333 0.597 1.333 1.333s-0.597 1.333-1.333 1.333h-5.333c-0.736 0-1.333-0.597-1.333-1.333s0.597-1.333 1.333-1.333h5.333zM18.667 12c0.736 0 1.333 0.597 1.333 1.333s-0.597 1.333-1.333 1.333h-5.333c-0.736 0-1.333-0.597-1.333-1.333s0.597-1.333 1.333-1.333h5.333zM18.667 6.667c0.736 0 1.333 0.597 1.333 1.333s-0.597 1.333-1.333 1.333h-5.333c-0.736 0-1.333-0.597-1.333-1.333s0.597-1.333 1.333-1.333h5.333zM4 26.667c0 0.354 0.141 0.693 0.391 0.943s0.589 0.391 0.943 0.391h1.333v-10.667h-1.333c-0.354 0-0.693 0.141-0.943 0.391s-0.391 0.589-0.391 0.943v8zM22.667 5.333c0-0.354-0.14-0.693-0.391-0.943s-0.589-0.391-0.943-0.391h-10.667c-0.354 0-0.693 0.141-0.943 0.391s-0.391 0.589-0.391 0.943v22.667h13.333v-22.667zM25.333 10.667h1.333c1.061 0 2.078 0.422 2.828 1.172s1.172 1.767 1.172 2.828v12c0 1.061-0.422 2.078-1.172 2.828s-1.767 1.172-2.828 1.172h-21.333c-1.061 0-2.078-0.422-2.828-1.172s-1.172-1.767-1.172-2.828v-8c0-1.061 0.422-2.078 1.172-2.828s1.767-1.172 2.828-1.172h1.333v-9.333c0-1.061 0.422-2.078 1.172-2.828s1.767-1.172 2.828-1.172h10.667c1.061 0 2.078 0.422 2.828 1.172s1.172 1.767 1.172 2.828v5.333z"></path>
        </symbol>
        <symbol id="icon-users" viewBox="0 0 32 32">
            <path
                d="M20 28v-2.667c0-1.061-0.422-2.078-1.172-2.828-0.656-0.656-1.517-1.061-2.432-1.152l-0.396-0.020h-8c-1.061 0-2.078 0.422-2.828 1.172s-1.172 1.767-1.172 2.828v2.667c0 0.736-0.597 1.333-1.333 1.333s-1.333-0.597-1.333-1.333v-2.667c0-1.768 0.703-3.463 1.953-4.714s2.945-1.953 4.714-1.953h8c1.768 0 3.463 0.703 4.713 1.953s1.953 2.945 1.953 4.714v2.667c0 0.736-0.597 1.333-1.333 1.333s-1.333-0.597-1.333-1.333zM28 28v-2.665l-0.014-0.331c-0.064-0.768-0.349-1.504-0.824-2.117-0.543-0.7-1.303-1.202-2.161-1.423-0.713-0.184-1.141-0.911-0.957-1.624 0.173-0.668 0.822-1.087 1.49-0.986l0.134 0.029 0.266 0.074c1.321 0.4 2.489 1.201 3.337 2.296 0.905 1.167 1.396 2.602 1.397 4.079v2.668c0 0.736-0.597 1.333-1.333 1.333s-1.333-0.597-1.333-1.333zM16 9.333c0-2.209-1.791-4-4-4s-4 1.791-4 4c0 2.209 1.791 4 4 4s4-1.791 4-4zM24.010 9.34c0-0.888-0.295-1.752-0.84-2.453-0.477-0.614-1.12-1.074-1.85-1.327l-0.318-0.095-0.13-0.040c-0.634-0.233-1.002-0.913-0.831-1.582s0.82-1.089 1.488-0.988l0.134 0.027 0.267 0.074c1.325 0.398 2.496 1.201 3.346 2.297 0.907 1.169 1.4 2.607 1.4 4.087l-0.005 0.277c-0.057 1.382-0.544 2.714-1.395 3.81-0.908 1.169-2.179 2.004-3.613 2.371-0.713 0.183-1.44-0.248-1.622-0.961s0.248-1.44 0.961-1.622c0.86-0.22 1.623-0.72 2.168-1.422 0.476-0.614 0.761-1.351 0.825-2.121l0.014-0.332zM18.667 9.333c0 3.682-2.985 6.667-6.667 6.667s-6.667-2.985-6.667-6.667c0-3.682 2.985-6.667 6.667-6.667s6.667 2.985 6.667 6.667z"></path>
        </symbol>
        <symbol id="icon-analytics" viewBox="0 0 32 32">
            <path
                d="M2.667 25.333v-21.333c0-0.736 0.597-1.333 1.333-1.333s1.333 0.597 1.333 1.333v21.333c0 0.354 0.141 0.693 0.391 0.943s0.589 0.391 0.943 0.391h21.333c0.736 0 1.333 0.597 1.333 1.333s-0.597 1.333-1.333 1.333h-21.333c-1.061 0-2.078-0.422-2.828-1.172s-1.172-1.767-1.172-2.828zM10.667 12v9.333h2.667v-9.333h-2.667zM21.333 8v13.333h2.667v-13.333h-2.667zM16 21.333c0 1.473-1.194 2.667-2.667 2.667h-2.667c-1.473 0-2.667-1.194-2.667-2.667v-9.333c0-1.473 1.194-2.667 2.667-2.667h2.667c1.473 0 2.667 1.194 2.667 2.667v9.333zM26.667 21.333c0 1.473-1.194 2.667-2.667 2.667h-2.667c-1.473 0-2.667-1.194-2.667-2.667v-13.333c0-1.473 1.194-2.667 2.667-2.667h2.667c1.473 0 2.667 1.194 2.667 2.667v13.333z"></path>
        </symbol>
        <symbol id="icon-settings" viewBox="0 0 32 32">
            <path
                d="M17.626 5.333c0-0.354-0.14-0.693-0.391-0.943s-0.589-0.391-0.943-0.391h-0.586c-0.354 0-0.693 0.141-0.943 0.391s-0.391 0.589-0.391 0.943v0.241c-0.001 0.701-0.187 1.391-0.538 1.999s-0.855 1.112-1.462 1.462l-0.001-0.001-0.573 0.335c-0.608 0.351-1.298 0.535-2 0.535s-1.392-0.184-2-0.535l-0.16-0.086c-0.013-0.007-0.026-0.014-0.039-0.021-0.306-0.176-0.669-0.224-1.010-0.133s-0.633 0.314-0.81 0.62l-0.293 0.506c-0.175 0.305-0.222 0.668-0.132 1.008 0.080 0.299 0.26 0.559 0.509 0.738l0.111 0.072 0.072 0.044 0.199 0.133c0.572 0.347 1.049 0.83 1.385 1.409 0.351 0.604 0.537 1.289 0.542 1.987v0.682l-0.008 0.263c-0.038 0.613-0.216 1.211-0.523 1.746-0.348 0.605-0.849 1.106-1.451 1.458l-0.199 0.121c-0.006 0.004-0.011 0.007-0.017 0.010-0.306 0.177-0.529 0.469-0.62 0.81s-0.044 0.703 0.132 1.008l0.292 0.507c0.177 0.306 0.47 0.528 0.811 0.62s0.704 0.044 1.010-0.133c0.013-0.007 0.026-0.014 0.039-0.021l0.16-0.086c0.608-0.351 1.298-0.535 2-0.535s1.392 0.184 2 0.535l0.004 0.003 0.569 0.331c0.607 0.351 1.113 0.855 1.464 1.462s0.537 1.297 0.538 1.999v0.241c0 0.354 0.141 0.693 0.391 0.943s0.589 0.391 0.943 0.391h0.586c0.353 0 0.693-0.141 0.943-0.391s0.391-0.589 0.391-0.943v-0.241c0.001-0.701 0.187-1.391 0.538-1.999s0.855-1.112 1.462-1.462l0.574-0.333c0.608-0.351 1.298-0.535 2-0.535s1.392 0.184 2 0.535l0.199 0.107c0.306 0.176 0.669 0.224 1.010 0.133s0.633-0.314 0.81-0.62l0.285-0.507 0.007-0.010 0.060-0.119c0.126-0.279 0.153-0.595 0.073-0.893-0.091-0.341-0.314-0.632-0.62-0.809l-0.159-0.085c-0.013-0.007-0.026-0.013-0.039-0.021-0.61-0.352-1.117-0.86-1.469-1.471s-0.534-1.304-0.531-2.009v-0.661c-0.002-0.703 0.181-1.394 0.531-2.004 0.348-0.605 0.847-1.108 1.449-1.46l0.201-0.12 0.017-0.010c0.306-0.177 0.529-0.469 0.62-0.81s0.044-0.702-0.132-1.008l-0.293-0.508c-0.177-0.306-0.469-0.527-0.81-0.618s-0.704-0.044-1.010 0.133c-0.013 0.007-0.026 0.014-0.039 0.021l-0.161 0.085c-0.608 0.351-1.297 0.536-1.999 0.536s-1.392-0.184-2-0.535l-0.004-0.003-0.57-0.332c-0.607-0.351-1.111-0.854-1.462-1.461s-0.537-1.297-0.538-1.999v-0.241zM18.667 16c0-1.473-1.194-2.667-2.667-2.667s-2.667 1.194-2.667 2.667c0 1.473 1.194 2.667 2.667 2.667s2.667-1.194 2.667-2.667zM21.333 16c0 2.946-2.388 5.333-5.333 5.333s-5.333-2.388-5.333-5.333c0-2.945 2.388-5.333 5.333-5.333s5.333 2.388 5.333 5.333zM20.293 5.572c0 0.234 0.063 0.464 0.18 0.667 0.088 0.152 0.204 0.285 0.342 0.391l0.148 0.099 0.569 0.331c0.203 0.117 0.434 0.178 0.668 0.178s0.464-0.061 0.667-0.178l0.039-0.022 0.199-0.107c0.91-0.512 1.984-0.647 2.993-0.378 0.896 0.239 1.677 0.781 2.214 1.527l0.215 0.332 0.293 0.508 0.001 0.001c0.529 0.918 0.673 2.008 0.4 3.031-0.272 1.017-0.936 1.885-1.844 2.417l0.001 0.001-0.199 0.12c-0.006 0.004-0.013 0.008-0.020 0.012-0.204 0.117-0.372 0.287-0.49 0.491s-0.178 0.434-0.177 0.669v0.677c-0.001 0.235 0.060 0.466 0.177 0.669 0.115 0.2 0.28 0.366 0.478 0.483l0.172 0.092c0.014 0.007 0.028 0.016 0.042 0.023 0.917 0.531 1.586 1.404 1.859 2.427 0.273 1.019 0.129 2.104-0.395 3.020l0.001 0.001-0.293 0.521-0.008 0.013c-0.531 0.917-1.405 1.586-2.428 1.86-1.010 0.27-2.084 0.132-2.993-0.38v0.003l-0.199-0.107c-0.013-0.007-0.026-0.015-0.039-0.022-0.203-0.117-0.433-0.178-0.667-0.178s-0.464 0.061-0.667 0.178l-0.001-0.001-0.569 0.332-0.148 0.099c-0.138 0.106-0.255 0.239-0.342 0.391-0.117 0.202-0.18 0.433-0.18 0.667v0.238c0 1.061-0.421 2.078-1.171 2.828s-1.769 1.172-2.829 1.172h-0.586c-1.061 0-2.079-0.422-2.829-1.172s-1.171-1.768-1.171-2.828v-0.238l-0.012-0.175c-0.023-0.173-0.080-0.34-0.168-0.492s-0.204-0.285-0.342-0.391l-0.148-0.099-0.57-0.332c-0.202-0.117-0.433-0.177-0.667-0.177s-0.464 0.061-0.667 0.178c-0.013 0.007-0.026 0.015-0.039 0.022l-0.199 0.107-0.001-0.003c-0.91 0.512-1.983 0.65-2.992 0.38-1.024-0.274-1.897-0.943-2.428-1.86l-0.293-0.508-0.001-0.001c-0.529-0.918-0.673-2.008-0.4-3.031 0.272-1.017 0.935-1.886 1.842-2.418l0.219-0.132c0.203-0.117 0.372-0.287 0.49-0.491s0.178-0.435 0.177-0.669v-0.677l-0.012-0.173c-0.024-0.172-0.082-0.339-0.169-0.49-0.117-0.201-0.284-0.368-0.486-0.484-0.025-0.014-0.049-0.030-0.073-0.046l-0.199-0.133c-0.88-0.535-1.523-1.388-1.789-2.384-0.273-1.023-0.13-2.114 0.4-3.031l0.001-0.003 0.293-0.507c0.531-0.917 1.405-1.586 2.428-1.859 1.009-0.27 2.083-0.132 2.992 0.379l0.001-0.001 0.199 0.107c0.013 0.007 0.026 0.015 0.039 0.022 0.203 0.117 0.433 0.178 0.667 0.178s0.464-0.061 0.667-0.178l0.57-0.331 0.148-0.099c0.138-0.106 0.255-0.239 0.342-0.391 0.117-0.202 0.179-0.432 0.18-0.665v-0.24c0-1.061 0.421-2.078 1.171-2.828s1.769-1.172 2.829-1.172h0.586c1.061 0 2.079 0.422 2.829 1.172s1.171 1.767 1.171 2.828v0.238z"></path>
        </symbol>
        <symbol id="icon-crm" viewBox="0 0 32 32">
            <path
                d="M28 28c0.736 0 1.333 0.597 1.333 1.333s-0.597 1.333-1.333 1.333h-24c-0.736 0-1.333-0.597-1.333-1.333s0.597-1.333 1.333-1.333h24zM26.667 10.667c0-0.736-0.597-1.333-1.333-1.333h-18.667c-0.736 0-1.333 0.597-1.333 1.333v10.667c0 0.736 0.597 1.333 1.333 1.333h18.667c0.736 0 1.333-0.597 1.333-1.333v-10.667zM28 1.333c0.736 0 1.333 0.597 1.333 1.333s-0.597 1.333-1.333 1.333h-24c-0.736 0-1.333-0.597-1.333-1.333s0.597-1.333 1.333-1.333h24zM29.333 21.333c0 2.209-1.791 4-4 4h-18.667c-2.209 0-4-1.791-4-4v-10.667c0-2.209 1.791-4 4-4h18.667c2.209 0 4 1.791 4 4v10.667z"></path>
        </symbol>
        <symbol id="icon-wallet" viewBox="0 0 32 32">
            <path
                d="M24 17.333c-0.354 0-0.693 0.141-0.943 0.391s-0.391 0.589-0.391 0.943l0.007 0.131c0.030 0.305 0.165 0.592 0.384 0.811 0.25 0.25 0.589 0.391 0.943 0.391h4v-2.667h-4zM6.667 10.667c-0.459 0-0.909-0.084-1.333-0.234v14.901c0 0.354 0.141 0.693 0.391 0.943s0.589 0.391 0.943 0.391h20v-4h-2.667c-1.061 0-2.078-0.422-2.828-1.172-0.656-0.656-1.061-1.517-1.152-2.432l-0.020-0.396c0-1.061 0.422-2.078 1.172-2.828s1.767-1.172 2.828-1.172h2.667v-4h-20zM6.667 5.333c-0.354 0-0.693 0.141-0.943 0.391s-0.391 0.589-0.391 0.943l0.006 0.131c0.030 0.305 0.165 0.592 0.384 0.811 0.25 0.25 0.589 0.391 0.943 0.391h17.333v-2.667h-17.333zM26.667 8c0.707 0 1.385 0.281 1.885 0.781s0.781 1.178 0.781 1.885v4.359c0.2 0.115 0.386 0.256 0.552 0.422 0.5 0.5 0.781 1.178 0.781 1.885v2.667c0 0.707-0.281 1.385-0.781 1.885-0.166 0.166-0.352 0.305-0.552 0.42v4.361c0 0.707-0.281 1.385-0.781 1.885s-1.178 0.781-1.885 0.781h-20c-1.061 0-2.078-0.422-2.828-1.172s-1.172-1.767-1.172-2.828v-18.667c0-1.061 0.422-2.078 1.172-2.828s1.767-1.172 2.828-1.172h17.333c0.707 0 1.385 0.281 1.885 0.781s0.781 1.178 0.781 1.885v2.667z"></path>
        </symbol>
        <symbol id="icon-checkmark" viewBox="0 0 32 32">
            <path stroke-linejoin="round" stroke-linecap="round" stroke-miterlimit="4"
                stroke-width="4.8" fill="none" d="M26.666 8l-14.667 14.667-6.667-6.667"></path>
        </symbol>
    </defs>
</svg>