<svg width="164" height="60" viewBox="0 0 164 60" fill="none" xmlns="http://www.w3.org/2000/svg">
<path d="M48.2348 26.2969C48.0192 25.9007 47.7477 25.5376 47.4285 25.2188C47.7486 24.5895 47.9178 23.8943 47.9228 23.1882C47.9278 22.4822 47.7686 21.7847 47.4575 21.1508C47.1465 20.5169 46.6923 19.9641 46.1308 19.5361C45.5693 19.108 44.9159 18.8164 44.2223 18.6844L27.9754 15.3563L30.5629 13.2188L37.566 12.0657C43.0316 11.0063 41.6535 2.93445 36.1129 3.82507L27.8066 5.38132C26.532 5.61832 25.3551 6.22469 24.4223 7.12507L10.641 20.4001C10.1284 20.9025 9.72094 21.5019 9.44248 22.1635C9.16401 22.825 9.0201 23.5354 9.01915 24.2532V45.7032C8.63389 45.6775 8.24747 45.7312 7.88379 45.8609C7.52011 45.9906 7.18691 46.1935 6.90482 46.4571C6.62273 46.7208 6.39774 47.0395 6.24379 47.3936C6.08983 47.7477 6.01018 48.1296 6.00977 48.5157V55.3126C6.00934 55.4358 6.0333 55.5579 6.08026 55.6718C6.12722 55.7858 6.19626 55.8893 6.2834 55.9764C6.37054 56.0636 6.47406 56.1326 6.588 56.1796C6.70194 56.2265 6.82404 56.2505 6.94727 56.2501H32.991C33.1143 56.2505 33.2364 56.2265 33.3503 56.1796C33.4642 56.1326 33.5677 56.0636 33.6549 55.9764C33.742 55.8893 33.8111 55.7858 33.858 55.6718C33.905 55.5579 33.9289 55.4358 33.9285 55.3126V48.5157C33.919 48.0944 33.8185 47.6802 33.634 47.3013C33.4494 46.9225 33.1851 46.5881 32.8592 46.321C32.5333 46.0538 32.1535 45.8603 31.7458 45.7537C31.3381 45.6471 30.9122 45.6298 30.4973 45.7032C30.6577 44.4754 30.9989 43.278 31.5098 42.1501C37.3598 41.3719 40.8941 36.8813 42.4973 34.2094C42.9935 33.3897 43.6863 32.7066 44.5129 32.2219L46.8566 30.8251C47.6238 30.3916 48.1948 29.6796 48.4513 28.8366C48.7079 27.9937 48.6304 27.0843 48.2348 26.2969ZM25.7254 8.47507C26.3964 7.83049 27.2398 7.39414 28.1535 7.21882L36.4598 5.66257C37.063 5.55919 37.6826 5.69911 38.1828 6.05169C38.6831 6.40427 39.0232 6.94076 39.1286 7.54361C39.234 8.14647 39.0962 8.76654 38.7453 9.26798C38.3945 9.76941 37.8591 10.1113 37.2566 10.2188L30.0098 11.4094C29.8447 11.439 29.6899 11.51 29.5598 11.6157L25.6223 14.8782C25.6223 14.8782 20.3348 13.8094 20.2129 13.7907L25.7254 8.47507ZM45.9004 29.2126C44.1566 30.2251 41.8691 31.4157 40.8941 33.2344C39.2816 36.2344 34.5191 41.0813 28.7254 40.3688C28.4802 40.3518 28.2382 40.4318 28.0515 40.5917C27.8649 40.7515 27.7485 40.9783 27.7276 41.2232C27.7067 41.4681 27.7829 41.7113 27.9397 41.9005C28.0966 42.0897 28.3215 42.2096 28.566 42.2344C28.866 42.2626 29.1473 42.2626 29.4379 42.2719C29.0035 43.3714 28.7258 44.5264 28.6129 45.7032H10.8941V24.2532C10.8951 23.7864 10.9894 23.3246 11.1713 22.8948C11.3532 22.4649 11.6192 22.0757 11.9535 21.7501L17.5785 16.3313C17.9397 16.0369 18.3613 15.8255 18.8133 15.7121C19.2653 15.5987 19.7367 15.586 20.1941 15.6751L43.8473 20.5219C44.5542 20.6728 45.1728 21.0971 45.5681 21.7024C45.9634 22.3076 46.1033 23.0446 45.9572 23.7526C45.8112 24.4605 45.3911 25.082 44.7885 25.4814C44.186 25.8808 43.45 26.0257 42.741 25.8844L35.2691 24.3188C35.1146 23.1473 34.5933 22.0548 33.7799 21.1976C32.9665 20.3405 31.9028 19.7627 30.741 19.5469L22.3879 17.9532C22.1455 17.9132 21.8972 17.9697 21.6959 18.1106C21.4947 18.2515 21.3567 18.4656 21.3113 18.707C21.266 18.9484 21.317 19.198 21.4533 19.4023C21.5897 19.6066 21.8007 19.7494 22.041 19.8001L30.3848 21.3938C31.1779 21.5418 31.9013 21.9438 32.4459 22.5391C32.9905 23.1344 33.3266 23.8907 33.4035 24.6938C33.1785 25.0219 32.6629 30.0469 32.6629 30.0469C32.5538 30.7016 32.208 31.2935 31.6912 31.71C31.1745 32.1265 30.5227 32.3387 29.8598 32.3063C29.9254 32.1095 30.7691 27.0751 30.7691 27.0751C30.9225 26.1154 30.7044 25.1333 30.1593 24.3287C29.6141 23.5241 28.7829 22.9573 27.8348 22.7439L19.0316 20.7657C18.7911 20.7172 18.5412 20.7651 18.3357 20.8991C18.1301 21.033 17.9854 21.2423 17.9326 21.4818C17.8797 21.7214 17.923 21.9722 18.0532 22.1801C18.1834 22.3881 18.3899 22.5366 18.6285 22.5938L27.4223 24.5719C27.9052 24.6791 28.3289 24.9671 28.6061 25.3768C28.8833 25.7866 28.9931 26.2869 28.9129 26.7751L28.1629 31.4157C28.0774 31.9364 27.7999 32.4062 27.3851 32.7324C26.9704 33.0587 26.4485 33.2177 25.9223 33.1782L25.0879 33.1126C24.5734 33.0595 24.0954 32.8225 23.7418 32.4451C23.3882 32.0676 23.1828 31.5752 23.1634 31.0584C23.144 30.5415 23.3119 30.0351 23.6363 29.6322C23.9606 29.2293 24.4195 28.9571 24.9285 28.8657C25.1517 28.7622 25.3252 28.5752 25.4118 28.345C25.4985 28.1148 25.4912 27.8597 25.3917 27.6348C25.2921 27.4099 25.1082 27.2331 24.8796 27.1424C24.6509 27.0517 24.3958 27.0545 24.1691 27.1501C23.6237 27.5433 23.0317 27.8677 22.4066 28.1157L17.3441 27.0844C17.102 27.0386 16.8516 27.0899 16.647 27.2272C16.4424 27.3645 16.3001 27.5769 16.2508 27.8183C16.2015 28.0598 16.2493 28.3109 16.3837 28.5174C16.5181 28.7239 16.7284 28.8693 16.9691 28.9219L21.3098 29.8126C21.3285 31.6688 21.0004 35.0063 19.2566 35.9157C19.0404 36.0322 18.8787 36.2291 18.8065 36.4638C18.7342 36.6986 18.7572 36.9523 18.8705 37.1703C18.9838 37.3882 19.1782 37.5528 19.4119 37.6285C19.6455 37.7043 19.8996 37.6851 20.1191 37.5751C20.7645 37.1863 21.3236 36.6698 21.7621 36.0572C22.2006 35.4446 22.5093 34.7488 22.6691 34.0126C23.6374 34.7722 24.8543 35.1433 26.0816 35.0532C27.0413 35.0533 27.968 34.7033 28.6879 34.0688C28.8178 34.1388 28.9623 34.1773 29.1098 34.1813C30.2809 34.3621 31.4772 34.0975 32.4629 33.4398C33.4486 32.7821 34.1521 31.779 34.4348 30.6282C36.1487 29.3214 37.9817 28.1789 39.9098 27.2157L42.3566 27.7219C42.9852 27.8542 43.6344 27.8533 44.2625 27.7193C44.8907 27.5852 45.4837 27.3211 46.0035 26.9438C46.2941 26.5782 46.3879 26.8594 46.5754 27.1782C46.7397 27.54 46.7615 27.9504 46.6363 28.3276C46.5112 28.7047 46.2484 29.0208 45.9004 29.2126ZM37.0598 26.6157C36.2535 27.0844 35.5223 27.5625 34.9035 27.9751L35.1941 26.2219L37.0598 26.6157Z" fill="#3A3C55"/>
<path d="M48.5633 20.4439C48.2537 20.0161 48.3495 19.4182 48.7773 19.1085L52.0963 16.7064C53.1538 16.0034 54.2154 17.4718 53.2177 18.2557L49.8986 20.6579C49.4708 20.9676 48.873 20.8717 48.5633 20.4439Z" fill="#3A3C55"/>
<path d="M51.5889 24.1467C51.0674 24.0631 50.7124 23.5725 50.796 23.0511C50.8796 22.5296 51.3701 22.1746 51.8916 22.2582L53.3218 22.4874C53.8433 22.5709 54.1983 23.0615 54.1147 23.583C54.0312 24.1045 53.5407 24.4594 53.0192 24.3759L51.5889 24.1467Z" fill="#3A3C55"/>
<path d="M45.9923 16.4131L46.2215 14.9828C46.305 14.4613 46.7955 14.1063 47.317 14.1899C47.8385 14.2734 48.1935 14.7639 48.1099 15.2854L47.8807 16.7157C47.7971 17.2372 47.3067 17.5922 46.7852 17.5086C46.2636 17.4251 45.9087 16.9345 45.9923 16.4131Z" fill="#3A3C55"/>
<path d="M70.8807 28V16.3636H75.6875C76.5587 16.3636 77.3106 16.5341 77.9432 16.875C78.5795 17.2121 79.0701 17.6837 79.4148 18.2898C79.7595 18.892 79.9318 19.5928 79.9318 20.392C79.9318 21.1951 79.7557 21.8977 79.4034 22.5C79.0549 23.0985 78.5568 23.5625 77.9091 23.892C77.2614 24.2216 76.4924 24.3864 75.6023 24.3864H72.6364V22.1705H75.0795C75.5038 22.1705 75.858 22.0966 76.142 21.9489C76.4299 21.8011 76.6477 21.5947 76.7955 21.3295C76.9432 21.0606 77.017 20.7481 77.017 20.392C77.017 20.0322 76.9432 19.7216 76.7955 19.4602C76.6477 19.1951 76.4299 18.9905 76.142 18.8466C75.8542 18.7027 75.5 18.6307 75.0795 18.6307H73.6932V28H70.8807ZM81.3182 28V19.2727H84.017V20.8636H84.108C84.267 20.2879 84.5265 19.8598 84.8864 19.5795C85.2462 19.2955 85.6648 19.1534 86.142 19.1534C86.2708 19.1534 86.4034 19.1629 86.5398 19.1818C86.6761 19.197 86.803 19.2216 86.9205 19.2557V21.6705C86.7879 21.625 86.6136 21.589 86.3977 21.5625C86.1856 21.536 85.9962 21.5227 85.8295 21.5227C85.5 21.5227 85.2027 21.5966 84.9375 21.7443C84.6761 21.8883 84.4697 22.0909 84.3182 22.3523C84.1705 22.6098 84.0966 22.9129 84.0966 23.2614V28H81.3182ZM91.6733 28.1648C90.7566 28.1648 89.9688 27.9773 89.3097 27.6023C88.6544 27.2235 88.1487 26.697 87.7926 26.0227C87.4403 25.3447 87.2642 24.5587 87.2642 23.6648C87.2642 22.767 87.4403 21.9811 87.7926 21.3068C88.1487 20.6288 88.6544 20.1023 89.3097 19.7273C89.9688 19.3485 90.7566 19.1591 91.6733 19.1591C92.59 19.1591 93.3759 19.3485 94.0312 19.7273C94.6903 20.1023 95.196 20.6288 95.5483 21.3068C95.9044 21.9811 96.0824 22.767 96.0824 23.6648C96.0824 24.5587 95.9044 25.3447 95.5483 26.0227C95.196 26.697 94.6903 27.2235 94.0312 27.6023C93.3759 27.9773 92.59 28.1648 91.6733 28.1648ZM91.6903 26.0682C92.0237 26.0682 92.3059 25.9659 92.5369 25.7614C92.768 25.5568 92.9441 25.2727 93.0653 24.9091C93.1903 24.5455 93.2528 24.125 93.2528 23.6477C93.2528 23.1629 93.1903 22.7386 93.0653 22.375C92.9441 22.0114 92.768 21.7273 92.5369 21.5227C92.3059 21.3182 92.0237 21.2159 91.6903 21.2159C91.3456 21.2159 91.054 21.3182 90.8153 21.5227C90.5805 21.7273 90.4006 22.0114 90.2756 22.375C90.1544 22.7386 90.0938 23.1629 90.0938 23.6477C90.0938 24.125 90.1544 24.5455 90.2756 24.9091C90.4006 25.2727 90.5805 25.5568 90.8153 25.7614C91.054 25.9659 91.3456 26.0682 91.6903 26.0682ZM105.125 21.9375L102.574 22.0057C102.547 21.8239 102.475 21.6629 102.358 21.5227C102.241 21.3788 102.087 21.267 101.898 21.1875C101.712 21.1042 101.496 21.0625 101.25 21.0625C100.928 21.0625 100.653 21.1269 100.426 21.2557C100.203 21.3845 100.093 21.5587 100.097 21.7784C100.093 21.9489 100.161 22.0966 100.301 22.2216C100.445 22.3466 100.701 22.447 101.068 22.5227L102.75 22.8409C103.621 23.0076 104.269 23.2841 104.693 23.6705C105.121 24.0568 105.337 24.5682 105.341 25.2045C105.337 25.803 105.159 26.3239 104.807 26.767C104.458 27.2102 103.981 27.5549 103.375 27.8011C102.769 28.0436 102.076 28.1648 101.295 28.1648C100.049 28.1648 99.0663 27.9091 98.3466 27.3977C97.6307 26.8826 97.2216 26.1932 97.1193 25.3295L99.8636 25.2614C99.9242 25.5795 100.081 25.822 100.335 25.9886C100.589 26.1553 100.913 26.2386 101.307 26.2386C101.663 26.2386 101.953 26.1723 102.176 26.0398C102.4 25.9072 102.513 25.7311 102.517 25.5114C102.513 25.3144 102.426 25.1572 102.256 25.0398C102.085 24.9186 101.818 24.8239 101.455 24.7557L99.9318 24.4659C99.0568 24.3068 98.4053 24.0133 97.9773 23.5852C97.5492 23.1534 97.3371 22.6042 97.3409 21.9375C97.3371 21.3542 97.4924 20.8561 97.8068 20.4432C98.1212 20.0265 98.5682 19.7083 99.1477 19.4886C99.7273 19.2689 100.411 19.1591 101.199 19.1591C102.381 19.1591 103.313 19.4072 103.994 19.9034C104.676 20.3958 105.053 21.0739 105.125 21.9375ZM111.635 19.2727V21.3182H106.129V19.2727H111.635ZM107.283 17.1818H110.061V25.2557C110.061 25.4261 110.088 25.5644 110.141 25.6705C110.197 25.7727 110.279 25.8466 110.385 25.892C110.491 25.9337 110.618 25.9545 110.766 25.9545C110.872 25.9545 110.983 25.9451 111.101 25.9261C111.222 25.9034 111.313 25.8845 111.374 25.8693L111.794 27.875C111.661 27.9129 111.474 27.9602 111.232 28.017C110.993 28.0739 110.707 28.1098 110.374 28.125C109.722 28.1553 109.163 28.0795 108.697 27.8977C108.235 27.7121 107.881 27.4242 107.635 27.0341C107.393 26.6439 107.275 26.1534 107.283 25.5625V17.1818ZM117.033 28.1648C116.116 28.1648 115.328 27.9773 114.669 27.6023C114.014 27.2235 113.508 26.697 113.152 26.0227C112.8 25.3447 112.624 24.5587 112.624 23.6648C112.624 22.767 112.8 21.9811 113.152 21.3068C113.508 20.6288 114.014 20.1023 114.669 19.7273C115.328 19.3485 116.116 19.1591 117.033 19.1591C117.949 19.1591 118.735 19.3485 119.391 19.7273C120.05 20.1023 120.555 20.6288 120.908 21.3068C121.264 21.9811 121.442 22.767 121.442 23.6648C121.442 24.5587 121.264 25.3447 120.908 26.0227C120.555 26.697 120.05 27.2235 119.391 27.6023C118.735 27.9773 117.949 28.1648 117.033 28.1648ZM117.05 26.0682C117.383 26.0682 117.665 25.9659 117.896 25.7614C118.127 25.5568 118.304 25.2727 118.425 24.9091C118.55 24.5455 118.612 24.125 118.612 23.6477C118.612 23.1629 118.55 22.7386 118.425 22.375C118.304 22.0114 118.127 21.7273 117.896 21.5227C117.665 21.3182 117.383 21.2159 117.05 21.2159C116.705 21.2159 116.413 21.3182 116.175 21.5227C115.94 21.7273 115.76 22.0114 115.635 22.375C115.514 22.7386 115.453 23.1629 115.453 23.6477C115.453 24.125 115.514 24.5455 115.635 24.9091C115.76 25.2727 115.94 25.5568 116.175 25.7614C116.413 25.9659 116.705 26.0682 117.05 26.0682ZM133.428 20.5795H130.587C130.549 20.2879 130.471 20.0246 130.354 19.7898C130.236 19.5549 130.081 19.3542 129.888 19.1875C129.695 19.0208 129.465 18.8939 129.2 18.8068C128.939 18.7159 128.649 18.6705 128.331 18.6705C127.767 18.6705 127.28 18.8087 126.871 19.0852C126.465 19.3617 126.153 19.7614 125.933 20.2841C125.717 20.8068 125.609 21.4394 125.609 22.1818C125.609 22.9545 125.719 23.6023 125.939 24.125C126.162 24.6439 126.475 25.036 126.876 25.3011C127.282 25.5625 127.761 25.6932 128.314 25.6932C128.625 25.6932 128.907 25.6534 129.161 25.5739C129.418 25.4943 129.643 25.3788 129.837 25.2273C130.034 25.072 130.195 24.8845 130.32 24.6648C130.448 24.4413 130.537 24.1894 130.587 23.9091L133.428 23.9261C133.378 24.4413 133.229 24.9489 132.979 25.4489C132.732 25.9489 132.393 26.4053 131.962 26.8182C131.53 27.2273 131.003 27.553 130.382 27.7955C129.765 28.0379 129.056 28.1591 128.257 28.1591C127.204 28.1591 126.261 27.928 125.428 27.4659C124.598 27 123.943 26.322 123.462 25.4318C122.981 24.5417 122.74 23.4583 122.74 22.1818C122.74 20.9015 122.984 19.8163 123.473 18.9261C123.962 18.036 124.623 17.3598 125.456 16.8977C126.289 16.4356 127.223 16.2045 128.257 16.2045C128.962 16.2045 129.613 16.303 130.212 16.5C130.81 16.6932 131.337 16.9773 131.791 17.3523C132.246 17.7235 132.615 18.1799 132.899 18.7216C133.183 19.2633 133.359 19.8826 133.428 20.5795ZM135.037 28V16.3636H139.844C140.715 16.3636 141.467 16.5208 142.099 16.8352C142.736 17.1458 143.226 17.5928 143.571 18.1761C143.916 18.7557 144.088 19.4432 144.088 20.2386C144.088 21.0455 143.912 21.7311 143.56 22.2955C143.207 22.8561 142.707 23.2841 142.06 23.5795C141.412 23.8712 140.645 24.017 139.759 24.017H136.719V21.8011H139.236C139.66 21.8011 140.014 21.7462 140.298 21.6364C140.586 21.5227 140.804 21.3523 140.952 21.125C141.099 20.8939 141.173 20.5985 141.173 20.2386C141.173 19.8788 141.099 19.5814 140.952 19.3466C140.804 19.108 140.586 18.9299 140.298 18.8125C140.01 18.6913 139.656 18.6307 139.236 18.6307H137.849V28H135.037ZM141.588 22.6818L144.486 28H141.418L138.577 22.6818H141.588ZM145.631 16.3636H149.114L152.068 23.5682H152.205L155.159 16.3636H158.642V28H155.903V20.8523H155.807L153.011 27.9261H151.261L148.466 20.8125H148.369V28H145.631V16.3636Z" fill="#3A3C55"/>
<path d="M75.2926 40.1776V41.2812H71.7472V40.1776H75.2926ZM72.1051 37.4545V44H70.8565V37.4545H72.1051ZM76.1832 37.4545V44H74.9389V37.4545H76.1832ZM78.4588 46.4545C78.2685 46.4545 78.0952 46.4389 77.9389 46.4077C77.7827 46.3793 77.6662 46.348 77.5895 46.3139L77.8963 45.2699C78.1293 45.3324 78.3366 45.3594 78.5185 45.3509C78.7003 45.3423 78.8608 45.2741 79 45.1463C79.142 45.0185 79.267 44.8097 79.375 44.5199L79.5327 44.0852L77.1378 37.4545H78.5014L80.1591 42.5341H80.2273L81.8849 37.4545H83.2528L80.5554 44.8736C80.4304 45.2145 80.2713 45.5028 80.0781 45.7386C79.8849 45.9773 79.6548 46.1563 79.3878 46.2756C79.1207 46.3949 78.8111 46.4545 78.4588 46.4545ZM86.9869 45.8878V42.8963H87.5195C87.6559 42.7713 87.771 42.6222 87.8647 42.4489C87.9613 42.2756 88.0423 42.0696 88.1076 41.831C88.1758 41.5923 88.2326 41.3139 88.2781 40.9957C88.3235 40.6747 88.3633 40.3082 88.3974 39.8963L88.6019 37.4545H93.0508V42.8963H94.0565V45.8878H92.8121V44H88.2482V45.8878H86.9869ZM88.8832 42.8963H91.8065V38.5455H89.744L89.6076 39.8963C89.5423 40.5838 89.4599 41.1804 89.3604 41.6861C89.261 42.1889 89.1019 42.5923 88.8832 42.8963ZM96.1072 46.4545C95.9169 46.4545 95.7436 46.4389 95.5874 46.4077C95.4311 46.3793 95.3146 46.348 95.2379 46.3139L95.5447 45.2699C95.7777 45.3324 95.9851 45.3594 96.1669 45.3509C96.3487 45.3423 96.5092 45.2741 96.6484 45.1463C96.7905 45.0185 96.9155 44.8097 97.0234 44.5199L97.1811 44.0852L94.7862 37.4545H96.1499L97.8075 42.5341H97.8757L99.5334 37.4545H100.901L98.2038 44.8736C98.0788 45.2145 97.9197 45.5028 97.7266 45.7386C97.5334 45.9773 97.3033 46.1563 97.0362 46.2756C96.7692 46.3949 96.4595 46.4545 96.1072 46.4545ZM101.681 44L104.217 40.6506L101.711 37.4545H103.194L105.218 40.1733H105.674V37.4545H106.948V40.1733H107.391L109.415 37.4545H110.898L108.406 40.6506L110.928 44H109.415L107.374 41.2727H106.948V44H105.674V41.2727H105.248L103.194 44H101.681ZM114.787 44.1321C114.142 44.1321 113.587 43.9943 113.121 43.7188C112.658 43.4403 112.3 43.0497 112.047 42.5469C111.797 42.0412 111.672 41.4489 111.672 40.7699C111.672 40.0994 111.797 39.5085 112.047 38.9972C112.3 38.4858 112.652 38.0866 113.104 37.7997C113.558 37.5128 114.089 37.3693 114.697 37.3693C115.067 37.3693 115.425 37.4304 115.771 37.5526C116.118 37.6747 116.429 37.8665 116.705 38.1278C116.98 38.3892 117.197 38.7287 117.357 39.1463C117.516 39.5611 117.595 40.0653 117.595 40.6591V41.1108H112.392V40.1562H116.347C116.347 39.821 116.278 39.5241 116.142 39.2656C116.006 39.0043 115.814 38.7983 115.567 38.6477C115.322 38.4972 115.036 38.4219 114.706 38.4219C114.348 38.4219 114.036 38.5099 113.768 38.6861C113.504 38.8594 113.3 39.0866 113.155 39.3679C113.013 39.6463 112.942 39.9489 112.942 40.2756V41.0213C112.942 41.4588 113.018 41.831 113.172 42.1378C113.328 42.4446 113.545 42.679 113.824 42.8409C114.102 43 114.428 43.0795 114.8 43.0795C115.041 43.0795 115.261 43.0455 115.46 42.9773C115.659 42.9062 115.831 42.8011 115.976 42.6619C116.121 42.5227 116.232 42.3509 116.308 42.1463L117.514 42.3636C117.418 42.7187 117.244 43.0298 116.994 43.2969C116.747 43.5611 116.436 43.767 116.061 43.9148C115.689 44.0597 115.264 44.1321 114.787 44.1321ZM122.185 44V37.4545H127.524V44H126.276V38.554H123.425V44H122.185ZM129.228 46.4545V37.4545H130.472V38.5156H130.578C130.652 38.3793 130.759 38.2216 130.898 38.0426C131.037 37.8636 131.23 37.7074 131.478 37.5739C131.725 37.4375 132.051 37.3693 132.458 37.3693C132.986 37.3693 133.458 37.5028 133.873 37.7699C134.287 38.0369 134.613 38.4219 134.848 38.9247C135.087 39.4276 135.206 40.0327 135.206 40.7401C135.206 41.4474 135.088 42.054 134.853 42.5597C134.617 43.0625 134.293 43.4503 133.881 43.723C133.469 43.9929 132.999 44.1278 132.471 44.1278C132.073 44.1278 131.748 44.0611 131.495 43.9276C131.245 43.794 131.049 43.6378 130.907 43.4588C130.765 43.2798 130.655 43.1207 130.578 42.9815H130.502V46.4545H129.228ZM130.476 40.7273C130.476 41.1875 130.543 41.5909 130.676 41.9375C130.81 42.2841 131.003 42.5554 131.256 42.7514C131.509 42.9446 131.819 43.0412 132.185 43.0412C132.566 43.0412 132.884 42.9403 133.14 42.7386C133.395 42.5341 133.588 42.2571 133.719 41.9077C133.853 41.5582 133.919 41.1648 133.919 40.7273C133.919 40.2955 133.854 39.9077 133.723 39.5639C133.596 39.2202 133.402 38.9489 133.144 38.75C132.888 38.5511 132.569 38.4517 132.185 38.4517C131.816 38.4517 131.503 38.5469 131.248 38.7372C130.995 38.9276 130.803 39.1932 130.672 39.5341C130.542 39.875 130.476 40.2727 130.476 40.7273ZM139.391 44.1321C138.777 44.1321 138.242 43.9915 137.784 43.7102C137.327 43.429 136.972 43.0355 136.719 42.5298C136.466 42.0241 136.34 41.4332 136.34 40.7571C136.34 40.0781 136.466 39.4844 136.719 38.9759C136.972 38.4673 137.327 38.0724 137.784 37.7912C138.242 37.5099 138.777 37.3693 139.391 37.3693C140.005 37.3693 140.54 37.5099 140.998 37.7912C141.455 38.0724 141.81 38.4673 142.063 38.9759C142.316 39.4844 142.442 40.0781 142.442 40.7571C142.442 41.4332 142.316 42.0241 142.063 42.5298C141.81 43.0355 141.455 43.429 140.998 43.7102C140.54 43.9915 140.005 44.1321 139.391 44.1321ZM139.395 43.0625C139.793 43.0625 140.123 42.9574 140.384 42.7472C140.645 42.5369 140.838 42.2571 140.963 41.9077C141.091 41.5582 141.155 41.1733 141.155 40.7528C141.155 40.3352 141.091 39.9517 140.963 39.6023C140.838 39.25 140.645 38.9673 140.384 38.7543C140.123 38.5412 139.793 38.4347 139.395 38.4347C138.995 38.4347 138.662 38.5412 138.398 38.7543C138.137 38.9673 137.942 39.25 137.814 39.6023C137.689 39.9517 137.627 40.3352 137.627 40.7528C137.627 41.1733 137.689 41.5582 137.814 41.9077C137.942 42.2571 138.137 42.5369 138.398 42.7472C138.662 42.9574 138.995 43.0625 139.395 43.0625ZM146.621 44.1321C145.988 44.1321 145.442 43.9886 144.985 43.7017C144.531 43.4119 144.181 43.0128 143.937 42.5043C143.692 41.9957 143.57 41.4134 143.57 40.7571C143.57 40.0923 143.695 39.5057 143.945 38.9972C144.195 38.4858 144.548 38.0866 145.002 37.7997C145.457 37.5128 145.992 37.3693 146.609 37.3693C147.106 37.3693 147.549 37.4616 147.938 37.6463C148.327 37.8281 148.641 38.0838 148.88 38.4134C149.121 38.7429 149.265 39.1278 149.31 39.5682H148.07C148.002 39.2614 147.846 38.9972 147.602 38.7756C147.36 38.554 147.036 38.4432 146.63 38.4432C146.275 38.4432 145.964 38.5369 145.697 38.7244C145.433 38.9091 145.227 39.1733 145.079 39.517C144.931 39.858 144.857 40.2614 144.857 40.7273C144.857 41.2045 144.93 41.6165 145.075 41.9631C145.219 42.3097 145.424 42.5781 145.688 42.7685C145.955 42.9588 146.269 43.054 146.63 43.054C146.871 43.054 147.09 43.0099 147.286 42.9219C147.485 42.831 147.651 42.7017 147.785 42.5341C147.921 42.3665 148.016 42.1648 148.07 41.929H149.31C149.265 42.3523 149.127 42.7301 148.897 43.0625C148.667 43.3949 148.359 43.6562 147.972 43.8466C147.589 44.0369 147.138 44.1321 146.621 44.1321ZM150.178 38.554V37.4545H155.7V38.554H153.565V44H152.321V38.554H150.178ZM159.5 44.1321C158.887 44.1321 158.351 43.9915 157.894 43.7102C157.436 43.429 157.081 43.0355 156.828 42.5298C156.576 42.0241 156.449 41.4332 156.449 40.7571C156.449 40.0781 156.576 39.4844 156.828 38.9759C157.081 38.4673 157.436 38.0724 157.894 37.7912C158.351 37.5099 158.887 37.3693 159.5 37.3693C160.114 37.3693 160.65 37.5099 161.107 37.7912C161.564 38.0724 161.919 38.4673 162.172 38.9759C162.425 39.4844 162.551 40.0781 162.551 40.7571C162.551 41.4332 162.425 42.0241 162.172 42.5298C161.919 43.0355 161.564 43.429 161.107 43.7102C160.65 43.9915 160.114 44.1321 159.5 44.1321ZM159.505 43.0625C159.902 43.0625 160.232 42.9574 160.493 42.7472C160.755 42.5369 160.948 42.2571 161.073 41.9077C161.201 41.5582 161.265 41.1733 161.265 40.7528C161.265 40.3352 161.201 39.9517 161.073 39.6023C160.948 39.25 160.755 38.9673 160.493 38.7543C160.232 38.5412 159.902 38.4347 159.505 38.4347C159.104 38.4347 158.772 38.5412 158.507 38.7543C158.246 38.9673 158.051 39.25 157.924 39.6023C157.799 39.9517 157.736 40.3352 157.736 40.7528C157.736 41.1733 157.799 41.5582 157.924 41.9077C158.051 42.2571 158.246 42.5369 158.507 42.7472C158.772 42.9574 159.104 43.0625 159.505 43.0625Z" fill="#3A3C55"/>
</svg>
