<svg width="100" height="100" viewBox="0 0 100 100" fill="none" xmlns="http://www.w3.org/2000/svg">
<path d="M94.5908 27.3916C98.0399 34.1817 100 41.8596 100 50C100 77.6157 77.6157 100 50 100C41.8596 100 34.1817 98.0399 27.3916 94.5908L44.3291 77.6543C46.1654 78.0323 48.0557 78.2256 50 78.2256C65.5864 78.2256 78.2256 65.5864 78.2256 50C78.2256 48.0557 78.0246 46.1577 77.6543 44.3291L94.5908 27.3916ZM50 0C58.1172 0 65.7791 1.94439 72.5537 5.37793L55.6016 22.3301C53.7884 21.9675 51.9212 21.7744 50 21.7744C34.4136 21.7744 21.7744 34.4136 21.7744 50C21.7744 51.9212 21.9675 53.7961 22.3301 55.6016L5.37793 72.5537C1.94439 65.7791 0 58.1172 0 50C6.18495e-06 22.3843 22.3843 6.18415e-06 50 0Z" fill="#8A5CF4"/>
</svg>
